<svg width="1363" height="163" viewBox="0 0 1363 163" fill="none" xmlns="http://www.w3.org/2000/svg">
<path d="M0 15C0 6.71573 6.71573 0 15 0H37V163H15C6.71573 163 0 156.284 0 148V15Z" fill="#424242"/>
<rect width="1097" height="163" transform="translate(37)" fill="#F0F0F0"/>
<path d="M98.2617 43.9375V61H94.7578V43.9375H98.2617ZM104.906 43V61H101.52V43H104.906ZM115.195 57.9648V48.3203H118.57V61H115.395L115.195 57.9648ZM115.57 55.3633L116.566 55.3398C116.566 56.1836 116.469 56.9688 116.273 57.6953C116.078 58.4141 115.785 59.0391 115.395 59.5703C115.004 60.0938 114.512 60.5039 113.918 60.8008C113.324 61.0898 112.625 61.2344 111.82 61.2344C111.203 61.2344 110.633 61.1484 110.109 60.9766C109.594 60.7969 109.148 60.5195 108.773 60.1445C108.406 59.7617 108.117 59.2734 107.906 58.6797C107.703 58.0781 107.602 57.3555 107.602 56.5117V48.3203H110.977V56.5352C110.977 56.9102 111.02 57.2266 111.105 57.4844C111.199 57.7422 111.328 57.9531 111.492 58.1172C111.656 58.2812 111.848 58.3984 112.066 58.4688C112.293 58.5391 112.543 58.5742 112.816 58.5742C113.512 58.5742 114.059 58.4336 114.457 58.1523C114.863 57.8711 115.148 57.4883 115.312 57.0039C115.484 56.5117 115.57 55.9648 115.57 55.3633ZM128.004 57.4961C128.004 57.2539 127.934 57.0352 127.793 56.8398C127.652 56.6445 127.391 56.4648 127.008 56.3008C126.633 56.1289 126.09 55.9727 125.379 55.832C124.738 55.6914 124.141 55.5156 123.586 55.3047C123.039 55.0859 122.562 54.8242 122.156 54.5195C121.758 54.2148 121.445 53.8555 121.219 53.4414C120.992 53.0195 120.879 52.5391 120.879 52C120.879 51.4688 120.992 50.9688 121.219 50.5C121.453 50.0312 121.785 49.6172 122.215 49.2578C122.652 48.8906 123.184 48.6055 123.809 48.4023C124.441 48.1914 125.152 48.0859 125.941 48.0859C127.043 48.0859 127.988 48.2617 128.777 48.6133C129.574 48.9648 130.184 49.4492 130.605 50.0664C131.035 50.6758 131.25 51.3711 131.25 52.1523H127.875C127.875 51.8242 127.805 51.5312 127.664 51.2734C127.531 51.0078 127.32 50.8008 127.031 50.6523C126.75 50.4961 126.383 50.418 125.93 50.418C125.555 50.418 125.23 50.4844 124.957 50.6172C124.684 50.7422 124.473 50.9141 124.324 51.1328C124.184 51.3438 124.113 51.5781 124.113 51.8359C124.113 52.0312 124.152 52.207 124.23 52.3633C124.316 52.5117 124.453 52.6484 124.641 52.7734C124.828 52.8984 125.07 53.0156 125.367 53.125C125.672 53.2266 126.047 53.3203 126.492 53.4062C127.406 53.5938 128.223 53.8398 128.941 54.1445C129.66 54.4414 130.23 54.8477 130.652 55.3633C131.074 55.8711 131.285 56.5391 131.285 57.3672C131.285 57.9297 131.16 58.4453 130.91 58.9141C130.66 59.3828 130.301 59.793 129.832 60.1445C129.363 60.4883 128.801 60.7578 128.145 60.9531C127.496 61.1406 126.766 61.2344 125.953 61.2344C124.773 61.2344 123.773 61.0234 122.953 60.6016C122.141 60.1797 121.523 59.6445 121.102 58.9961C120.688 58.3398 120.48 57.668 120.48 56.9805H123.68C123.695 57.4414 123.812 57.8125 124.031 58.0938C124.258 58.375 124.543 58.5781 124.887 58.7031C125.238 58.8281 125.617 58.8906 126.023 58.8906C126.461 58.8906 126.824 58.832 127.113 58.7148C127.402 58.5898 127.621 58.4258 127.77 58.2227C127.926 58.0117 128.004 57.7695 128.004 57.4961ZM139.688 48.3203V50.7109H132.305V48.3203H139.688ZM134.133 45.1914H137.508V57.1797C137.508 57.5469 137.555 57.8281 137.648 58.0234C137.75 58.2188 137.898 58.3555 138.094 58.4336C138.289 58.5039 138.535 58.5391 138.832 58.5391C139.043 58.5391 139.23 58.5312 139.395 58.5156C139.566 58.4922 139.711 58.4688 139.828 58.4453L139.84 60.9297C139.551 61.0234 139.238 61.0977 138.902 61.1523C138.566 61.207 138.195 61.2344 137.789 61.2344C137.047 61.2344 136.398 61.1133 135.844 60.8711C135.297 60.6211 134.875 60.2227 134.578 59.6758C134.281 59.1289 134.133 58.4102 134.133 57.5195V45.1914ZM144.984 51.0859V61H141.609V48.3203H144.785L144.984 51.0859ZM148.805 48.2383L148.746 51.3672C148.582 51.3438 148.383 51.3242 148.148 51.3086C147.922 51.2852 147.715 51.2734 147.527 51.2734C147.051 51.2734 146.637 51.3359 146.285 51.4609C145.941 51.5781 145.652 51.7539 145.418 51.9883C145.191 52.2227 145.02 52.5078 144.902 52.8438C144.793 53.1797 144.73 53.5625 144.715 53.9922L144.035 53.7812C144.035 52.9609 144.117 52.207 144.281 51.5195C144.445 50.8242 144.684 50.2188 144.996 49.7031C145.316 49.1875 145.707 48.7891 146.168 48.5078C146.629 48.2266 147.156 48.0859 147.75 48.0859C147.938 48.0859 148.129 48.1016 148.324 48.1328C148.52 48.1562 148.68 48.1914 148.805 48.2383ZM156.844 58.1406V52.4922C156.844 52.0859 156.777 51.7383 156.645 51.4492C156.512 51.1523 156.305 50.9219 156.023 50.7578C155.75 50.5938 155.395 50.5117 154.957 50.5117C154.582 50.5117 154.258 50.5781 153.984 50.7109C153.711 50.8359 153.5 51.0195 153.352 51.2617C153.203 51.4961 153.129 51.7734 153.129 52.0938H149.754C149.754 51.5547 149.879 51.043 150.129 50.5586C150.379 50.0742 150.742 49.6484 151.219 49.2812C151.695 48.9062 152.262 48.6133 152.918 48.4023C153.582 48.1914 154.324 48.0859 155.145 48.0859C156.129 48.0859 157.004 48.25 157.77 48.5781C158.535 48.9062 159.137 49.3984 159.574 50.0547C160.02 50.7109 160.242 51.5312 160.242 52.5156V57.9414C160.242 58.6367 160.285 59.207 160.371 59.6523C160.457 60.0898 160.582 60.4727 160.746 60.8008V61H157.336C157.172 60.6562 157.047 60.2266 156.961 59.7109C156.883 59.1875 156.844 58.6641 156.844 58.1406ZM157.289 53.2773L157.312 55.1875H155.426C154.98 55.1875 154.594 55.2383 154.266 55.3398C153.938 55.4414 153.668 55.5859 153.457 55.7734C153.246 55.9531 153.09 56.1641 152.988 56.4062C152.895 56.6484 152.848 56.9141 152.848 57.2031C152.848 57.4922 152.914 57.7539 153.047 57.9883C153.18 58.2148 153.371 58.3945 153.621 58.5273C153.871 58.6523 154.164 58.7148 154.5 58.7148C155.008 58.7148 155.449 58.6133 155.824 58.4102C156.199 58.207 156.488 57.957 156.691 57.6602C156.902 57.3633 157.012 57.082 157.02 56.8164L157.91 58.2461C157.785 58.5664 157.613 58.8984 157.395 59.2422C157.184 59.5859 156.914 59.9102 156.586 60.2148C156.258 60.5117 155.863 60.7578 155.402 60.9531C154.941 61.1406 154.395 61.2344 153.762 61.2344C152.957 61.2344 152.227 61.0742 151.57 60.7539C150.922 60.4258 150.406 59.9766 150.023 59.4062C149.648 58.8281 149.461 58.1719 149.461 57.4375C149.461 56.7734 149.586 56.1836 149.836 55.668C150.086 55.1523 150.453 54.7188 150.938 54.3672C151.43 54.0078 152.043 53.7383 152.777 53.5586C153.512 53.3711 154.363 53.2773 155.332 53.2773H157.289ZM169.699 57.4961C169.699 57.2539 169.629 57.0352 169.488 56.8398C169.348 56.6445 169.086 56.4648 168.703 56.3008C168.328 56.1289 167.785 55.9727 167.074 55.832C166.434 55.6914 165.836 55.5156 165.281 55.3047C164.734 55.0859 164.258 54.8242 163.852 54.5195C163.453 54.2148 163.141 53.8555 162.914 53.4414C162.688 53.0195 162.574 52.5391 162.574 52C162.574 51.4688 162.688 50.9688 162.914 50.5C163.148 50.0312 163.48 49.6172 163.91 49.2578C164.348 48.8906 164.879 48.6055 165.504 48.4023C166.137 48.1914 166.848 48.0859 167.637 48.0859C168.738 48.0859 169.684 48.2617 170.473 48.6133C171.27 48.9648 171.879 49.4492 172.301 50.0664C172.73 50.6758 172.945 51.3711 172.945 52.1523H169.57C169.57 51.8242 169.5 51.5312 169.359 51.2734C169.227 51.0078 169.016 50.8008 168.727 50.6523C168.445 50.4961 168.078 50.418 167.625 50.418C167.25 50.418 166.926 50.4844 166.652 50.6172C166.379 50.7422 166.168 50.9141 166.02 51.1328C165.879 51.3438 165.809 51.5781 165.809 51.8359C165.809 52.0312 165.848 52.207 165.926 52.3633C166.012 52.5117 166.148 52.6484 166.336 52.7734C166.523 52.8984 166.766 53.0156 167.062 53.125C167.367 53.2266 167.742 53.3203 168.188 53.4062C169.102 53.5938 169.918 53.8398 170.637 54.1445C171.355 54.4414 171.926 54.8477 172.348 55.3633C172.77 55.8711 172.98 56.5391 172.98 57.3672C172.98 57.9297 172.855 58.4453 172.605 58.9141C172.355 59.3828 171.996 59.793 171.527 60.1445C171.059 60.4883 170.496 60.7578 169.84 60.9531C169.191 61.1406 168.461 61.2344 167.648 61.2344C166.469 61.2344 165.469 61.0234 164.648 60.6016C163.836 60.1797 163.219 59.6445 162.797 58.9961C162.383 58.3398 162.176 57.668 162.176 56.9805H165.375C165.391 57.4414 165.508 57.8125 165.727 58.0938C165.953 58.375 166.238 58.5781 166.582 58.7031C166.934 58.8281 167.312 58.8906 167.719 58.8906C168.156 58.8906 168.52 58.832 168.809 58.7148C169.098 58.5898 169.316 58.4258 169.465 58.2227C169.621 58.0117 169.699 57.7695 169.699 57.4961ZM178.734 48.3203V61H175.348V48.3203H178.734ZM175.137 45.0156C175.137 44.5234 175.309 44.1172 175.652 43.7969C175.996 43.4766 176.457 43.3164 177.035 43.3164C177.605 43.3164 178.062 43.4766 178.406 43.7969C178.758 44.1172 178.934 44.5234 178.934 45.0156C178.934 45.5078 178.758 45.9141 178.406 46.2344C178.062 46.5547 177.605 46.7148 177.035 46.7148C176.457 46.7148 175.996 46.5547 175.652 46.2344C175.309 45.9141 175.137 45.5078 175.137 45.0156ZM196.98 58.4688L201.598 62.125L199.383 64.0469L194.836 60.3906L196.98 58.4688ZM201.715 52.0703V52.8789C201.715 54.1758 201.539 55.3398 201.188 56.3711C200.844 57.4023 200.348 58.2812 199.699 59.0078C199.051 59.7266 198.285 60.2773 197.402 60.6602C196.52 61.043 195.539 61.2344 194.461 61.2344C193.391 61.2344 192.41 61.043 191.52 60.6602C190.629 60.2773 189.859 59.7266 189.211 59.0078C188.562 58.2812 188.059 57.4023 187.699 56.3711C187.348 55.3398 187.172 54.1758 187.172 52.8789V52.0703C187.172 50.7656 187.348 49.6016 187.699 48.5781C188.059 47.5469 188.559 46.668 189.199 45.9414C189.84 45.2148 190.605 44.6602 191.496 44.2773C192.387 43.8945 193.367 43.7031 194.438 43.7031C195.516 43.7031 196.496 43.8945 197.379 44.2773C198.27 44.6602 199.039 45.2148 199.688 45.9414C200.336 46.668 200.836 47.5469 201.188 48.5781C201.539 49.6016 201.715 50.7656 201.715 52.0703ZM198.164 52.8789V52.0469C198.164 51.1406 198.078 50.3438 197.906 49.6562C197.742 48.9688 197.5 48.3906 197.18 47.9219C196.867 47.4531 196.48 47.1016 196.02 46.8672C195.559 46.625 195.031 46.5039 194.438 46.5039C193.844 46.5039 193.316 46.625 192.855 46.8672C192.395 47.1016 192.008 47.4531 191.695 47.9219C191.383 48.3906 191.145 48.9688 190.98 49.6562C190.816 50.3438 190.734 51.1406 190.734 52.0469V52.8789C190.734 53.7773 190.816 54.5742 190.98 55.2695C191.145 55.957 191.383 56.5391 191.695 57.0156C192.016 57.4844 192.406 57.8398 192.867 58.082C193.336 58.3242 193.867 58.4453 194.461 58.4453C195.055 58.4453 195.578 58.3242 196.031 58.082C196.492 57.8398 196.879 57.4844 197.191 57.0156C197.512 56.5391 197.754 55.957 197.918 55.2695C198.082 54.5742 198.164 53.7773 198.164 52.8789ZM211.547 57.9648V48.3203H214.922V61H211.746L211.547 57.9648ZM211.922 55.3633L212.918 55.3398C212.918 56.1836 212.82 56.9688 212.625 57.6953C212.43 58.4141 212.137 59.0391 211.746 59.5703C211.355 60.0938 210.863 60.5039 210.27 60.8008C209.676 61.0898 208.977 61.2344 208.172 61.2344C207.555 61.2344 206.984 61.1484 206.461 60.9766C205.945 60.7969 205.5 60.5195 205.125 60.1445C204.758 59.7617 204.469 59.2734 204.258 58.6797C204.055 58.0781 203.953 57.3555 203.953 56.5117V48.3203H207.328V56.5352C207.328 56.9102 207.371 57.2266 207.457 57.4844C207.551 57.7422 207.68 57.9531 207.844 58.1172C208.008 58.2812 208.199 58.3984 208.418 58.4688C208.645 58.5391 208.895 58.5742 209.168 58.5742C209.863 58.5742 210.41 58.4336 210.809 58.1523C211.215 57.8711 211.5 57.4883 211.664 57.0039C211.836 56.5117 211.922 55.9648 211.922 55.3633ZM216.961 54.7891V54.543C216.961 53.6133 217.094 52.7578 217.359 51.9766C217.625 51.1875 218.012 50.5039 218.52 49.9258C219.027 49.3477 219.652 48.8984 220.395 48.5781C221.137 48.25 221.988 48.0859 222.949 48.0859C223.91 48.0859 224.766 48.25 225.516 48.5781C226.266 48.8984 226.895 49.3477 227.402 49.9258C227.918 50.5039 228.309 51.1875 228.574 51.9766C228.84 52.7578 228.973 53.6133 228.973 54.543V54.7891C228.973 55.7109 228.84 56.5664 228.574 57.3555C228.309 58.1367 227.918 58.8203 227.402 59.4062C226.895 59.9844 226.27 60.4336 225.527 60.7539C224.785 61.0742 223.934 61.2344 222.973 61.2344C222.012 61.2344 221.156 61.0742 220.406 60.7539C219.664 60.4336 219.035 59.9844 218.52 59.4062C218.012 58.8203 217.625 58.1367 217.359 57.3555C217.094 56.5664 216.961 55.7109 216.961 54.7891ZM220.336 54.543V54.7891C220.336 55.3203 220.383 55.8164 220.477 56.2773C220.57 56.7383 220.719 57.1445 220.922 57.4961C221.133 57.8398 221.406 58.1094 221.742 58.3047C222.078 58.5 222.488 58.5977 222.973 58.5977C223.441 58.5977 223.844 58.5 224.18 58.3047C224.516 58.1094 224.785 57.8398 224.988 57.4961C225.191 57.1445 225.34 56.7383 225.434 56.2773C225.535 55.8164 225.586 55.3203 225.586 54.7891V54.543C225.586 54.0273 225.535 53.543 225.434 53.0898C225.34 52.6289 225.188 52.2227 224.977 51.8711C224.773 51.5117 224.504 51.2305 224.168 51.0273C223.832 50.8242 223.426 50.7227 222.949 50.7227C222.473 50.7227 222.066 50.8242 221.73 51.0273C221.402 51.2305 221.133 51.5117 220.922 51.8711C220.719 52.2227 220.57 52.6289 220.477 53.0898C220.383 53.543 220.336 54.0273 220.336 54.543ZM237.258 48.3203V50.7109H229.875V48.3203H237.258ZM231.703 45.1914H235.078V57.1797C235.078 57.5469 235.125 57.8281 235.219 58.0234C235.32 58.2188 235.469 58.3555 235.664 58.4336C235.859 58.5039 236.105 58.5391 236.402 58.5391C236.613 58.5391 236.801 58.5312 236.965 58.5156C237.137 58.4922 237.281 58.4688 237.398 58.4453L237.41 60.9297C237.121 61.0234 236.809 61.0977 236.473 61.1523C236.137 61.207 235.766 61.2344 235.359 61.2344C234.617 61.2344 233.969 61.1133 233.414 60.8711C232.867 60.6211 232.445 60.2227 232.148 59.6758C231.852 59.1289 231.703 58.4102 231.703 57.5195V45.1914ZM245.016 61.2344C244.031 61.2344 243.148 61.0781 242.367 60.7656C241.586 60.4453 240.922 60.0039 240.375 59.4414C239.836 58.8789 239.422 58.2266 239.133 57.4844C238.844 56.7344 238.699 55.9375 238.699 55.0938V54.625C238.699 53.6641 238.836 52.7852 239.109 51.9883C239.383 51.1914 239.773 50.5 240.281 49.9141C240.797 49.3281 241.422 48.8789 242.156 48.5664C242.891 48.2461 243.719 48.0859 244.641 48.0859C245.539 48.0859 246.336 48.2344 247.031 48.5312C247.727 48.8281 248.309 49.25 248.777 49.7969C249.254 50.3438 249.613 51 249.855 51.7656C250.098 52.5234 250.219 53.3672 250.219 54.2969V55.7031H240.141V53.4531H246.902V53.1953C246.902 52.7266 246.816 52.3086 246.645 51.9414C246.48 51.5664 246.23 51.2695 245.895 51.0508C245.559 50.832 245.129 50.7227 244.605 50.7227C244.16 50.7227 243.777 50.8203 243.457 51.0156C243.137 51.2109 242.875 51.4844 242.672 51.8359C242.477 52.1875 242.328 52.6016 242.227 53.0781C242.133 53.5469 242.086 54.0625 242.086 54.625V55.0938C242.086 55.6016 242.156 56.0703 242.297 56.5C242.445 56.9297 242.652 57.3008 242.918 57.6133C243.191 57.9258 243.52 58.168 243.902 58.3398C244.293 58.5117 244.734 58.5977 245.227 58.5977C245.836 58.5977 246.402 58.4805 246.926 58.2461C247.457 58.0039 247.914 57.6406 248.297 57.1562L249.938 58.9375C249.672 59.3203 249.309 59.6875 248.848 60.0391C248.395 60.3906 247.848 60.6797 247.207 60.9062C246.566 61.125 245.836 61.2344 245.016 61.2344ZM258.996 57.4961C258.996 57.2539 258.926 57.0352 258.785 56.8398C258.645 56.6445 258.383 56.4648 258 56.3008C257.625 56.1289 257.082 55.9727 256.371 55.832C255.73 55.6914 255.133 55.5156 254.578 55.3047C254.031 55.0859 253.555 54.8242 253.148 54.5195C252.75 54.2148 252.438 53.8555 252.211 53.4414C251.984 53.0195 251.871 52.5391 251.871 52C251.871 51.4688 251.984 50.9688 252.211 50.5C252.445 50.0312 252.777 49.6172 253.207 49.2578C253.645 48.8906 254.176 48.6055 254.801 48.4023C255.434 48.1914 256.145 48.0859 256.934 48.0859C258.035 48.0859 258.98 48.2617 259.77 48.6133C260.566 48.9648 261.176 49.4492 261.598 50.0664C262.027 50.6758 262.242 51.3711 262.242 52.1523H258.867C258.867 51.8242 258.797 51.5312 258.656 51.2734C258.523 51.0078 258.312 50.8008 258.023 50.6523C257.742 50.4961 257.375 50.418 256.922 50.418C256.547 50.418 256.223 50.4844 255.949 50.6172C255.676 50.7422 255.465 50.9141 255.316 51.1328C255.176 51.3438 255.105 51.5781 255.105 51.8359C255.105 52.0312 255.145 52.207 255.223 52.3633C255.309 52.5117 255.445 52.6484 255.633 52.7734C255.82 52.8984 256.062 53.0156 256.359 53.125C256.664 53.2266 257.039 53.3203 257.484 53.4062C258.398 53.5938 259.215 53.8398 259.934 54.1445C260.652 54.4414 261.223 54.8477 261.645 55.3633C262.066 55.8711 262.277 56.5391 262.277 57.3672C262.277 57.9297 262.152 58.4453 261.902 58.9141C261.652 59.3828 261.293 59.793 260.824 60.1445C260.355 60.4883 259.793 60.7578 259.137 60.9531C258.488 61.1406 257.758 61.2344 256.945 61.2344C255.766 61.2344 254.766 61.0234 253.945 60.6016C253.133 60.1797 252.516 59.6445 252.094 58.9961C251.68 58.3398 251.473 57.668 251.473 56.9805H254.672C254.688 57.4414 254.805 57.8125 255.023 58.0938C255.25 58.375 255.535 58.5781 255.879 58.7031C256.23 58.8281 256.609 58.8906 257.016 58.8906C257.453 58.8906 257.816 58.832 258.105 58.7148C258.395 58.5898 258.613 58.4258 258.762 58.2227C258.918 58.0117 258.996 57.7695 258.996 57.4961Z" fill="#888888"/>
<path d="M109.219 107.422H100.734V101.07H109.219C110.375 101.07 111.312 100.875 112.031 100.484C112.75 100.094 113.273 99.5547 113.602 98.8672C113.945 98.1641 114.117 97.375 114.117 96.5C114.117 95.5625 113.945 94.6953 113.602 93.8984C113.273 93.1016 112.75 92.4609 112.031 91.9766C111.312 91.4766 110.375 91.2266 109.219 91.2266H103.828V119H95.6016V84.875H109.219C111.953 84.875 114.305 85.375 116.273 86.375C118.258 87.375 119.781 88.75 120.844 90.5C121.906 92.2344 122.438 94.2188 122.438 96.4531C122.438 98.6562 121.906 100.578 120.844 102.219C119.781 103.859 118.258 105.141 116.273 106.062C114.305 106.969 111.953 107.422 109.219 107.422ZM134.461 99.9219V119H126.562V93.6406H133.945L134.461 99.9219ZM141.961 93.4531L141.82 100.789C141.508 100.758 141.086 100.719 140.555 100.672C140.023 100.625 139.578 100.602 139.219 100.602C138.297 100.602 137.5 100.711 136.828 100.93C136.172 101.133 135.625 101.445 135.188 101.867C134.766 102.273 134.453 102.789 134.25 103.414C134.062 104.039 133.977 104.766 133.992 105.594L132.562 104.656C132.562 102.953 132.727 101.406 133.055 100.016C133.398 98.6094 133.883 97.3984 134.508 96.3828C135.133 95.3516 135.891 94.5625 136.781 94.0156C137.672 93.4531 138.672 93.1719 139.781 93.1719C140.172 93.1719 140.555 93.1953 140.93 93.2422C141.32 93.2891 141.664 93.3594 141.961 93.4531ZM142.852 106.578V106.086C142.852 104.227 143.117 102.516 143.648 100.953C144.18 99.375 144.961 98.0078 145.992 96.8516C147.023 95.6953 148.297 94.7969 149.812 94.1562C151.328 93.5 153.078 93.1719 155.062 93.1719C157.062 93.1719 158.82 93.5 160.336 94.1562C161.867 94.7969 163.148 95.6953 164.18 96.8516C165.211 98.0078 165.992 99.375 166.523 100.953C167.055 102.516 167.32 104.227 167.32 106.086V106.578C167.32 108.422 167.055 110.133 166.523 111.711C165.992 113.273 165.211 114.641 164.18 115.812C163.148 116.969 161.875 117.867 160.359 118.508C158.844 119.148 157.094 119.469 155.109 119.469C153.125 119.469 151.367 119.148 149.836 118.508C148.305 117.867 147.023 116.969 145.992 115.812C144.961 114.641 144.18 113.273 143.648 111.711C143.117 110.133 142.852 108.422 142.852 106.578ZM150.75 106.086V106.578C150.75 107.531 150.82 108.422 150.961 109.25C151.102 110.078 151.336 110.805 151.664 111.43C151.992 112.039 152.438 112.516 153 112.859C153.562 113.203 154.266 113.375 155.109 113.375C155.938 113.375 156.625 113.203 157.172 112.859C157.734 112.516 158.18 112.039 158.508 111.43C158.836 110.805 159.07 110.078 159.211 109.25C159.352 108.422 159.422 107.531 159.422 106.578V106.086C159.422 105.164 159.352 104.297 159.211 103.484C159.07 102.656 158.836 101.93 158.508 101.305C158.18 100.664 157.734 100.164 157.172 99.8047C156.609 99.4453 155.906 99.2656 155.062 99.2656C154.234 99.2656 153.539 99.4453 152.977 99.8047C152.43 100.164 151.992 100.664 151.664 101.305C151.336 101.93 151.102 102.656 150.961 103.484C150.82 104.297 150.75 105.164 150.75 106.086ZM171.422 93.6406H179.344V119.82C179.344 121.852 178.953 123.562 178.172 124.953C177.391 126.359 176.273 127.422 174.82 128.141C173.367 128.875 171.633 129.242 169.617 129.242C168.945 129.242 168.328 129.211 167.766 129.148C167.188 129.102 166.555 129 165.867 128.844V122.867C166.273 122.93 166.648 122.977 166.992 123.008C167.336 123.055 167.711 123.078 168.117 123.078C168.836 123.078 169.438 122.961 169.922 122.727C170.406 122.492 170.773 122.133 171.023 121.648C171.289 121.164 171.422 120.555 171.422 119.82V93.6406ZM170.836 87.1016C170.836 85.9766 171.242 85.0547 172.055 84.3359C172.867 83.6172 173.922 83.2578 175.219 83.2578C176.516 83.2578 177.57 83.6172 178.383 84.3359C179.195 85.0547 179.602 85.9766 179.602 87.1016C179.602 88.2266 179.195 89.1484 178.383 89.8672C177.57 90.5859 176.516 90.9453 175.219 90.9453C173.922 90.9453 172.867 90.5859 172.055 89.8672C171.242 89.1484 170.836 88.2266 170.836 87.1016ZM196.102 119.469C194.039 119.469 192.195 119.148 190.57 118.508C188.945 117.852 187.57 116.953 186.445 115.812C185.336 114.672 184.484 113.359 183.891 111.875C183.312 110.391 183.023 108.82 183.023 107.164V106.273C183.023 104.414 183.281 102.695 183.797 101.117C184.312 99.5234 185.078 98.1328 186.094 96.9453C187.109 95.7578 188.383 94.8359 189.914 94.1797C191.445 93.5078 193.227 93.1719 195.258 93.1719C197.055 93.1719 198.664 93.4609 200.086 94.0391C201.508 94.6172 202.711 95.4453 203.695 96.5234C204.695 97.6016 205.453 98.9062 205.969 100.438C206.5 101.969 206.766 103.688 206.766 105.594V108.805H186.047V103.859H199.055V103.25C199.07 102.406 198.922 101.688 198.609 101.094C198.312 100.5 197.875 100.047 197.297 99.7344C196.719 99.4219 196.016 99.2656 195.188 99.2656C194.328 99.2656 193.617 99.4531 193.055 99.8281C192.508 100.203 192.078 100.719 191.766 101.375C191.469 102.016 191.258 102.758 191.133 103.602C191.008 104.445 190.945 105.336 190.945 106.273V107.164C190.945 108.102 191.07 108.953 191.32 109.719C191.586 110.484 191.961 111.141 192.445 111.688C192.945 112.219 193.539 112.633 194.227 112.93C194.93 113.227 195.727 113.375 196.617 113.375C197.695 113.375 198.758 113.172 199.805 112.766C200.852 112.359 201.75 111.688 202.5 110.75L206.086 115.016C205.57 115.75 204.836 116.461 203.883 117.148C202.945 117.836 201.82 118.398 200.508 118.836C199.195 119.258 197.727 119.469 196.102 119.469ZM220.688 113.375C221.422 113.375 222.047 113.242 222.562 112.977C223.094 112.695 223.492 112.305 223.758 111.805C224.039 111.289 224.172 110.672 224.156 109.953H231.586C231.602 111.859 231.133 113.531 230.18 114.969C229.242 116.391 227.961 117.5 226.336 118.297C224.727 119.078 222.906 119.469 220.875 119.469C218.891 119.469 217.156 119.148 215.672 118.508C214.188 117.852 212.945 116.945 211.945 115.789C210.961 114.617 210.219 113.25 209.719 111.688C209.234 110.125 208.992 108.43 208.992 106.602V106.062C208.992 104.234 209.234 102.539 209.719 100.977C210.219 99.3984 210.961 98.0312 211.945 96.875C212.945 95.7031 214.18 94.7969 215.648 94.1562C217.133 93.5 218.859 93.1719 220.828 93.1719C222.938 93.1719 224.797 93.5703 226.406 94.3672C228.031 95.1641 229.305 96.3203 230.227 97.8359C231.148 99.3516 231.602 101.188 231.586 103.344H224.156C224.172 102.578 224.055 101.891 223.805 101.281C223.555 100.672 223.164 100.188 222.633 99.8281C222.117 99.4531 221.453 99.2656 220.641 99.2656C219.828 99.2656 219.172 99.4453 218.672 99.8047C218.172 100.164 217.789 100.664 217.523 101.305C217.273 101.93 217.102 102.648 217.008 103.461C216.93 104.273 216.891 105.141 216.891 106.062V106.602C216.891 107.539 216.93 108.422 217.008 109.25C217.102 110.062 217.281 110.781 217.547 111.406C217.812 112.016 218.195 112.5 218.695 112.859C219.195 113.203 219.859 113.375 220.688 113.375ZM248.32 93.6406V99.125H233.039V93.6406H248.32ZM236.25 87.3359H244.148V110.727C244.148 111.398 244.227 111.922 244.383 112.297C244.539 112.656 244.805 112.914 245.18 113.07C245.57 113.211 246.086 113.281 246.727 113.281C247.18 113.281 247.555 113.273 247.852 113.258C248.148 113.227 248.43 113.188 248.695 113.141V118.789C248.023 119.008 247.32 119.172 246.586 119.281C245.852 119.406 245.07 119.469 244.242 119.469C242.555 119.469 241.109 119.203 239.906 118.672C238.719 118.141 237.812 117.305 237.188 116.164C236.562 115.023 236.25 113.539 236.25 111.711V87.3359ZM274.875 119H267.305L267.352 112.672H274.875C276.438 112.672 277.758 112.297 278.836 111.547C279.93 110.797 280.758 109.68 281.32 108.195C281.898 106.695 282.188 104.852 282.188 102.664V101.188C282.188 99.5469 282.023 98.1094 281.695 96.875C281.383 95.625 280.914 94.5859 280.289 93.7578C279.664 92.9141 278.883 92.2812 277.945 91.8594C277.023 91.4375 275.961 91.2266 274.758 91.2266H267.164V84.875H274.758C277.07 84.875 279.188 85.2734 281.109 86.0703C283.047 86.8516 284.719 87.9766 286.125 89.4453C287.547 90.8984 288.641 92.625 289.406 94.625C290.188 96.6094 290.578 98.8125 290.578 101.234V102.664C290.578 105.07 290.188 107.273 289.406 109.273C288.641 111.273 287.555 113 286.148 114.453C284.742 115.906 283.078 117.031 281.156 117.828C279.25 118.609 277.156 119 274.875 119ZM272.016 84.875V119H263.789V84.875H272.016ZM306.773 119.469C304.711 119.469 302.867 119.148 301.242 118.508C299.617 117.852 298.242 116.953 297.117 115.812C296.008 114.672 295.156 113.359 294.562 111.875C293.984 110.391 293.695 108.82 293.695 107.164V106.273C293.695 104.414 293.953 102.695 294.469 101.117C294.984 99.5234 295.75 98.1328 296.766 96.9453C297.781 95.7578 299.055 94.8359 300.586 94.1797C302.117 93.5078 303.898 93.1719 305.93 93.1719C307.727 93.1719 309.336 93.4609 310.758 94.0391C312.18 94.6172 313.383 95.4453 314.367 96.5234C315.367 97.6016 316.125 98.9062 316.641 100.438C317.172 101.969 317.438 103.688 317.438 105.594V108.805H296.719V103.859H309.727V103.25C309.742 102.406 309.594 101.688 309.281 101.094C308.984 100.5 308.547 100.047 307.969 99.7344C307.391 99.4219 306.688 99.2656 305.859 99.2656C305 99.2656 304.289 99.4531 303.727 99.8281C303.18 100.203 302.75 100.719 302.438 101.375C302.141 102.016 301.93 102.758 301.805 103.602C301.68 104.445 301.617 105.336 301.617 106.273V107.164C301.617 108.102 301.742 108.953 301.992 109.719C302.258 110.484 302.633 111.141 303.117 111.688C303.617 112.219 304.211 112.633 304.898 112.93C305.602 113.227 306.398 113.375 307.289 113.375C308.367 113.375 309.43 113.172 310.477 112.766C311.523 112.359 312.422 111.688 313.172 110.75L316.758 115.016C316.242 115.75 315.508 116.461 314.555 117.148C313.617 117.836 312.492 118.398 311.18 118.836C309.867 119.258 308.398 119.469 306.773 119.469ZM333.938 111.875C333.938 111.438 333.789 111.062 333.492 110.75C333.211 110.422 332.711 110.125 331.992 109.859C331.273 109.578 330.266 109.297 328.969 109.016C327.734 108.75 326.57 108.398 325.477 107.961C324.398 107.523 323.453 106.992 322.641 106.367C321.828 105.742 321.188 105 320.719 104.141C320.266 103.281 320.039 102.297 320.039 101.188C320.039 100.109 320.266 99.0938 320.719 98.1406C321.188 97.1719 321.867 96.3203 322.758 95.5859C323.664 94.8359 324.766 94.25 326.062 93.8281C327.359 93.3906 328.836 93.1719 330.492 93.1719C332.773 93.1719 334.742 93.5234 336.398 94.2266C338.055 94.9141 339.328 95.8828 340.219 97.1328C341.125 98.3672 341.578 99.7969 341.578 101.422H333.68C333.68 100.781 333.57 100.234 333.352 99.7812C333.148 99.3281 332.812 98.9844 332.344 98.75C331.875 98.5 331.25 98.375 330.469 98.375C329.922 98.375 329.422 98.4766 328.969 98.6797C328.531 98.8828 328.18 99.1641 327.914 99.5234C327.648 99.8828 327.516 100.305 327.516 100.789C327.516 101.133 327.594 101.445 327.75 101.727C327.922 101.992 328.18 102.242 328.523 102.477C328.867 102.695 329.305 102.898 329.836 103.086C330.367 103.258 331.008 103.414 331.758 103.555C333.461 103.867 335.055 104.312 336.539 104.891C338.023 105.469 339.227 106.289 340.148 107.352C341.086 108.414 341.555 109.844 341.555 111.641C341.555 112.766 341.297 113.805 340.781 114.758C340.266 115.695 339.523 116.523 338.555 117.242C337.586 117.945 336.422 118.492 335.062 118.883C333.703 119.273 332.172 119.469 330.469 119.469C328.047 119.469 326 119.039 324.328 118.18C322.656 117.305 321.391 116.211 320.531 114.898C319.688 113.57 319.266 112.227 319.266 110.867H326.625C326.656 111.648 326.844 112.289 327.188 112.789C327.547 113.289 328.023 113.656 328.617 113.891C329.211 114.125 329.898 114.242 330.68 114.242C331.398 114.242 331.992 114.141 332.461 113.938C332.945 113.734 333.312 113.461 333.562 113.117C333.812 112.758 333.938 112.344 333.938 111.875ZM355.969 113.375C356.703 113.375 357.328 113.242 357.844 112.977C358.375 112.695 358.773 112.305 359.039 111.805C359.32 111.289 359.453 110.672 359.438 109.953H366.867C366.883 111.859 366.414 113.531 365.461 114.969C364.523 116.391 363.242 117.5 361.617 118.297C360.008 119.078 358.188 119.469 356.156 119.469C354.172 119.469 352.438 119.148 350.953 118.508C349.469 117.852 348.227 116.945 347.227 115.789C346.242 114.617 345.5 113.25 345 111.688C344.516 110.125 344.273 108.43 344.273 106.602V106.062C344.273 104.234 344.516 102.539 345 100.977C345.5 99.3984 346.242 98.0312 347.227 96.875C348.227 95.7031 349.461 94.7969 350.93 94.1562C352.414 93.5 354.141 93.1719 356.109 93.1719C358.219 93.1719 360.078 93.5703 361.688 94.3672C363.312 95.1641 364.586 96.3203 365.508 97.8359C366.43 99.3516 366.883 101.188 366.867 103.344H359.438C359.453 102.578 359.336 101.891 359.086 101.281C358.836 100.672 358.445 100.188 357.914 99.8281C357.398 99.4531 356.734 99.2656 355.922 99.2656C355.109 99.2656 354.453 99.4453 353.953 99.8047C353.453 100.164 353.07 100.664 352.805 101.305C352.555 101.93 352.383 102.648 352.289 103.461C352.211 104.273 352.172 105.141 352.172 106.062V106.602C352.172 107.539 352.211 108.422 352.289 109.25C352.383 110.062 352.562 110.781 352.828 111.406C353.094 112.016 353.477 112.5 353.977 112.859C354.477 113.203 355.141 113.375 355.969 113.375ZM378.211 99.9219V119H370.312V93.6406H377.695L378.211 99.9219ZM385.711 93.4531L385.57 100.789C385.258 100.758 384.836 100.719 384.305 100.672C383.773 100.625 383.328 100.602 382.969 100.602C382.047 100.602 381.25 100.711 380.578 100.93C379.922 101.133 379.375 101.445 378.938 101.867C378.516 102.273 378.203 102.789 378 103.414C377.812 104.039 377.727 104.766 377.742 105.594L376.312 104.656C376.312 102.953 376.477 101.406 376.805 100.016C377.148 98.6094 377.633 97.3984 378.258 96.3828C378.883 95.3516 379.641 94.5625 380.531 94.0156C381.422 93.4531 382.422 93.1719 383.531 93.1719C383.922 93.1719 384.305 93.1953 384.68 93.2422C385.07 93.2891 385.414 93.3594 385.711 93.4531ZM396.773 93.6406V119H388.852V93.6406H396.773ZM388.383 87.1016C388.383 85.9766 388.789 85.0547 389.602 84.3359C390.414 83.6172 391.469 83.2578 392.766 83.2578C394.062 83.2578 395.117 83.6172 395.93 84.3359C396.742 85.0547 397.148 85.9766 397.148 87.1016C397.148 88.2266 396.742 89.1484 395.93 89.8672C395.117 90.5859 394.062 90.9453 392.766 90.9453C391.469 90.9453 390.414 90.5859 389.602 89.8672C388.789 89.1484 388.383 88.2266 388.383 87.1016ZM409.617 98.5156V128.75H401.719V93.6406H409.078L409.617 98.5156ZM425.18 106.016V106.508C425.18 108.352 424.969 110.062 424.547 111.641C424.125 113.219 423.5 114.594 422.672 115.766C421.844 116.938 420.812 117.852 419.578 118.508C418.359 119.148 416.945 119.469 415.336 119.469C413.82 119.469 412.516 119.133 411.422 118.461C410.328 117.789 409.414 116.859 408.68 115.672C407.945 114.484 407.352 113.125 406.898 111.594C406.445 110.062 406.086 108.445 405.82 106.742V106.109C406.086 104.281 406.445 102.586 406.898 101.023C407.352 99.4453 407.945 98.0703 408.68 96.8984C409.414 95.7266 410.32 94.8125 411.398 94.1562C412.492 93.5 413.797 93.1719 415.312 93.1719C416.922 93.1719 418.336 93.4766 419.555 94.0859C420.789 94.6953 421.82 95.5703 422.648 96.7109C423.492 97.8359 424.125 99.1875 424.547 100.766C424.969 102.344 425.18 104.094 425.18 106.016ZM417.281 106.508V106.016C417.281 105.031 417.211 104.133 417.07 103.32C416.93 102.492 416.703 101.773 416.391 101.164C416.094 100.555 415.695 100.086 415.195 99.7578C414.695 99.4297 414.078 99.2656 413.344 99.2656C412.5 99.2656 411.789 99.3984 411.211 99.6641C410.648 99.9141 410.195 100.305 409.852 100.836C409.523 101.352 409.289 102 409.148 102.781C409.023 103.547 408.969 104.445 408.984 105.477V107.398C408.953 108.586 409.07 109.633 409.336 110.539C409.602 111.43 410.062 112.125 410.719 112.625C411.375 113.125 412.266 113.375 413.391 113.375C414.141 113.375 414.766 113.203 415.266 112.859C415.766 112.5 416.164 112.008 416.461 111.383C416.758 110.742 416.969 110.008 417.094 109.18C417.219 108.352 417.281 107.461 417.281 106.508ZM442.055 93.6406V99.125H426.773V93.6406H442.055ZM429.984 87.3359H437.883V110.727C437.883 111.398 437.961 111.922 438.117 112.297C438.273 112.656 438.539 112.914 438.914 113.07C439.305 113.211 439.82 113.281 440.461 113.281C440.914 113.281 441.289 113.273 441.586 113.258C441.883 113.227 442.164 113.188 442.43 113.141V118.789C441.758 119.008 441.055 119.172 440.32 119.281C439.586 119.406 438.805 119.469 437.977 119.469C436.289 119.469 434.844 119.203 433.641 118.672C432.453 118.141 431.547 117.305 430.922 116.164C430.297 115.023 429.984 113.539 429.984 111.711V87.3359ZM453.539 93.6406V119H445.617V93.6406H453.539ZM445.148 87.1016C445.148 85.9766 445.555 85.0547 446.367 84.3359C447.18 83.6172 448.234 83.2578 449.531 83.2578C450.828 83.2578 451.883 83.6172 452.695 84.3359C453.508 85.0547 453.914 85.9766 453.914 87.1016C453.914 88.2266 453.508 89.1484 452.695 89.8672C451.883 90.5859 450.828 90.9453 449.531 90.9453C448.234 90.9453 447.18 90.5859 446.367 89.8672C445.555 89.1484 445.148 88.2266 445.148 87.1016ZM457.43 106.578V106.086C457.43 104.227 457.695 102.516 458.227 100.953C458.758 99.375 459.539 98.0078 460.57 96.8516C461.602 95.6953 462.875 94.7969 464.391 94.1562C465.906 93.5 467.656 93.1719 469.641 93.1719C471.641 93.1719 473.398 93.5 474.914 94.1562C476.445 94.7969 477.727 95.6953 478.758 96.8516C479.789 98.0078 480.57 99.375 481.102 100.953C481.633 102.516 481.898 104.227 481.898 106.086V106.578C481.898 108.422 481.633 110.133 481.102 111.711C480.57 113.273 479.789 114.641 478.758 115.812C477.727 116.969 476.453 117.867 474.938 118.508C473.422 119.148 471.672 119.469 469.688 119.469C467.703 119.469 465.945 119.148 464.414 118.508C462.883 117.867 461.602 116.969 460.57 115.812C459.539 114.641 458.758 113.273 458.227 111.711C457.695 110.133 457.43 108.422 457.43 106.578ZM465.328 106.086V106.578C465.328 107.531 465.398 108.422 465.539 109.25C465.68 110.078 465.914 110.805 466.242 111.43C466.57 112.039 467.016 112.516 467.578 112.859C468.141 113.203 468.844 113.375 469.688 113.375C470.516 113.375 471.203 113.203 471.75 112.859C472.312 112.516 472.758 112.039 473.086 111.43C473.414 110.805 473.648 110.078 473.789 109.25C473.93 108.422 474 107.531 474 106.578V106.086C474 105.164 473.93 104.297 473.789 103.484C473.648 102.656 473.414 101.93 473.086 101.305C472.758 100.664 472.312 100.164 471.75 99.8047C471.188 99.4453 470.484 99.2656 469.641 99.2656C468.812 99.2656 468.117 99.4453 467.555 99.8047C467.008 100.164 466.57 100.664 466.242 101.305C465.914 101.93 465.68 102.656 465.539 103.484C465.398 104.297 465.328 105.164 465.328 106.086ZM493.172 99.0547V119H485.273V93.6406H492.68L493.172 99.0547ZM492.234 105.453L490.383 105.5C490.383 103.562 490.617 101.836 491.086 100.32C491.555 98.7891 492.219 97.4922 493.078 96.4297C493.938 95.3672 494.961 94.5625 496.148 94.0156C497.352 93.4531 498.688 93.1719 500.156 93.1719C501.328 93.1719 502.398 93.3438 503.367 93.6875C504.352 94.0312 505.195 94.5859 505.898 95.3516C506.617 96.1172 507.164 97.1328 507.539 98.3984C507.93 99.6484 508.125 101.195 508.125 103.039V119H500.18V103.016C500.18 102 500.039 101.227 499.758 100.695C499.477 100.148 499.07 99.7734 498.539 99.5703C498.008 99.3672 497.359 99.2656 496.594 99.2656C495.781 99.2656 495.094 99.4219 494.531 99.7344C493.969 100.047 493.516 100.484 493.172 101.047C492.844 101.594 492.602 102.242 492.445 102.992C492.305 103.742 492.234 104.562 492.234 105.453Z" fill="black"/>
<path d="M1134 0H1348C1356.28 0 1363 6.71573 1363 15V148C1363 156.284 1356.28 163 1348 163H1134V0Z" fill="#40265A"/>
<path d="M1234.26 103.786H1262.74V109.357H1234.26V103.786ZM1239.96 114.929H1257.04V120.5H1239.96V114.929ZM1248.5 42.5C1240.95 42.5 1233.71 45.4349 1228.37 50.6592C1223.03 55.8834 1220.03 62.969 1220.03 70.3571C1219.84 74.4057 1220.63 78.4412 1222.34 82.1315C1224.05 85.8219 1226.64 89.0616 1229.88 91.5843C1232.73 94.175 1234.26 95.6514 1234.26 98.2143H1239.96C1239.96 93.0886 1236.8 90.2193 1233.72 87.4614C1231.06 85.4676 1228.94 82.8658 1227.55 79.8838C1226.15 76.9019 1225.53 73.6308 1225.72 70.3571C1225.72 64.4466 1228.12 58.7781 1232.39 54.5988C1236.67 50.4194 1242.46 48.0714 1248.5 48.0714C1254.54 48.0714 1260.33 50.4194 1264.61 54.5988C1268.88 58.7781 1271.28 64.4466 1271.28 70.3571C1271.47 73.6333 1270.84 76.9059 1269.44 79.888C1268.04 82.8701 1265.92 85.4706 1263.25 87.4614C1260.2 90.2471 1257.04 93.0329 1257.04 98.2143H1262.74C1262.74 95.6514 1264.25 94.175 1267.12 91.5564C1270.36 89.0381 1272.94 85.8031 1274.66 82.1176C1276.37 78.4321 1277.16 74.4014 1276.97 70.3571C1276.97 66.6989 1276.24 63.0765 1274.81 59.6967C1273.37 56.3169 1271.28 53.2459 1268.63 50.6592C1265.99 48.0724 1262.85 46.0205 1259.4 44.6205C1255.94 43.2205 1252.24 42.5 1248.5 42.5Z" fill="white"/>
</svg>
