<svg width="1363" height="163" viewBox="0 0 1363 163" fill="none" xmlns="http://www.w3.org/2000/svg">
<path d="M0 15C0 6.71573 6.71573 0 15 0H37V163H15C6.71573 163 0 156.284 0 148V15Z" fill="#424242"/>
<rect width="1097" height="163" transform="translate(37)" fill="#F0F0F0"/>
<path d="M98.2617 43.9375V61H94.7578V43.9375H98.2617ZM104.906 43V61H101.52V43H104.906ZM115.195 57.9648V48.3203H118.57V61H115.395L115.195 57.9648ZM115.57 55.3633L116.566 55.3398C116.566 56.1836 116.469 56.9688 116.273 57.6953C116.078 58.4141 115.785 59.0391 115.395 59.5703C115.004 60.0938 114.512 60.5039 113.918 60.8008C113.324 61.0898 112.625 61.2344 111.82 61.2344C111.203 61.2344 110.633 61.1484 110.109 60.9766C109.594 60.7969 109.148 60.5195 108.773 60.1445C108.406 59.7617 108.117 59.2734 107.906 58.6797C107.703 58.0781 107.602 57.3555 107.602 56.5117V48.3203H110.977V56.5352C110.977 56.9102 111.02 57.2266 111.105 57.4844C111.199 57.7422 111.328 57.9531 111.492 58.1172C111.656 58.2812 111.848 58.3984 112.066 58.4688C112.293 58.5391 112.543 58.5742 112.816 58.5742C113.512 58.5742 114.059 58.4336 114.457 58.1523C114.863 57.8711 115.148 57.4883 115.312 57.0039C115.484 56.5117 115.57 55.9648 115.57 55.3633ZM128.004 57.4961C128.004 57.2539 127.934 57.0352 127.793 56.8398C127.652 56.6445 127.391 56.4648 127.008 56.3008C126.633 56.1289 126.09 55.9727 125.379 55.832C124.738 55.6914 124.141 55.5156 123.586 55.3047C123.039 55.0859 122.562 54.8242 122.156 54.5195C121.758 54.2148 121.445 53.8555 121.219 53.4414C120.992 53.0195 120.879 52.5391 120.879 52C120.879 51.4688 120.992 50.9688 121.219 50.5C121.453 50.0312 121.785 49.6172 122.215 49.2578C122.652 48.8906 123.184 48.6055 123.809 48.4023C124.441 48.1914 125.152 48.0859 125.941 48.0859C127.043 48.0859 127.988 48.2617 128.777 48.6133C129.574 48.9648 130.184 49.4492 130.605 50.0664C131.035 50.6758 131.25 51.3711 131.25 52.1523H127.875C127.875 51.8242 127.805 51.5312 127.664 51.2734C127.531 51.0078 127.32 50.8008 127.031 50.6523C126.75 50.4961 126.383 50.418 125.93 50.418C125.555 50.418 125.23 50.4844 124.957 50.6172C124.684 50.7422 124.473 50.9141 124.324 51.1328C124.184 51.3438 124.113 51.5781 124.113 51.8359C124.113 52.0312 124.152 52.207 124.23 52.3633C124.316 52.5117 124.453 52.6484 124.641 52.7734C124.828 52.8984 125.07 53.0156 125.367 53.125C125.672 53.2266 126.047 53.3203 126.492 53.4062C127.406 53.5938 128.223 53.8398 128.941 54.1445C129.66 54.4414 130.23 54.8477 130.652 55.3633C131.074 55.8711 131.285 56.5391 131.285 57.3672C131.285 57.9297 131.16 58.4453 130.91 58.9141C130.66 59.3828 130.301 59.793 129.832 60.1445C129.363 60.4883 128.801 60.7578 128.145 60.9531C127.496 61.1406 126.766 61.2344 125.953 61.2344C124.773 61.2344 123.773 61.0234 122.953 60.6016C122.141 60.1797 121.523 59.6445 121.102 58.9961C120.688 58.3398 120.48 57.668 120.48 56.9805H123.68C123.695 57.4414 123.812 57.8125 124.031 58.0938C124.258 58.375 124.543 58.5781 124.887 58.7031C125.238 58.8281 125.617 58.8906 126.023 58.8906C126.461 58.8906 126.824 58.832 127.113 58.7148C127.402 58.5898 127.621 58.4258 127.77 58.2227C127.926 58.0117 128.004 57.7695 128.004 57.4961ZM139.688 48.3203V50.7109H132.305V48.3203H139.688ZM134.133 45.1914H137.508V57.1797C137.508 57.5469 137.555 57.8281 137.648 58.0234C137.75 58.2188 137.898 58.3555 138.094 58.4336C138.289 58.5039 138.535 58.5391 138.832 58.5391C139.043 58.5391 139.23 58.5312 139.395 58.5156C139.566 58.4922 139.711 58.4688 139.828 58.4453L139.84 60.9297C139.551 61.0234 139.238 61.0977 138.902 61.1523C138.566 61.207 138.195 61.2344 137.789 61.2344C137.047 61.2344 136.398 61.1133 135.844 60.8711C135.297 60.6211 134.875 60.2227 134.578 59.6758C134.281 59.1289 134.133 58.4102 134.133 57.5195V45.1914ZM144.984 51.0859V61H141.609V48.3203H144.785L144.984 51.0859ZM148.805 48.2383L148.746 51.3672C148.582 51.3438 148.383 51.3242 148.148 51.3086C147.922 51.2852 147.715 51.2734 147.527 51.2734C147.051 51.2734 146.637 51.3359 146.285 51.4609C145.941 51.5781 145.652 51.7539 145.418 51.9883C145.191 52.2227 145.02 52.5078 144.902 52.8438C144.793 53.1797 144.73 53.5625 144.715 53.9922L144.035 53.7812C144.035 52.9609 144.117 52.207 144.281 51.5195C144.445 50.8242 144.684 50.2188 144.996 49.7031C145.316 49.1875 145.707 48.7891 146.168 48.5078C146.629 48.2266 147.156 48.0859 147.75 48.0859C147.938 48.0859 148.129 48.1016 148.324 48.1328C148.52 48.1562 148.68 48.1914 148.805 48.2383ZM156.844 58.1406V52.4922C156.844 52.0859 156.777 51.7383 156.645 51.4492C156.512 51.1523 156.305 50.9219 156.023 50.7578C155.75 50.5938 155.395 50.5117 154.957 50.5117C154.582 50.5117 154.258 50.5781 153.984 50.7109C153.711 50.8359 153.5 51.0195 153.352 51.2617C153.203 51.4961 153.129 51.7734 153.129 52.0938H149.754C149.754 51.5547 149.879 51.043 150.129 50.5586C150.379 50.0742 150.742 49.6484 151.219 49.2812C151.695 48.9062 152.262 48.6133 152.918 48.4023C153.582 48.1914 154.324 48.0859 155.145 48.0859C156.129 48.0859 157.004 48.25 157.77 48.5781C158.535 48.9062 159.137 49.3984 159.574 50.0547C160.02 50.7109 160.242 51.5312 160.242 52.5156V57.9414C160.242 58.6367 160.285 59.207 160.371 59.6523C160.457 60.0898 160.582 60.4727 160.746 60.8008V61H157.336C157.172 60.6562 157.047 60.2266 156.961 59.7109C156.883 59.1875 156.844 58.6641 156.844 58.1406ZM157.289 53.2773L157.312 55.1875H155.426C154.98 55.1875 154.594 55.2383 154.266 55.3398C153.938 55.4414 153.668 55.5859 153.457 55.7734C153.246 55.9531 153.09 56.1641 152.988 56.4062C152.895 56.6484 152.848 56.9141 152.848 57.2031C152.848 57.4922 152.914 57.7539 153.047 57.9883C153.18 58.2148 153.371 58.3945 153.621 58.5273C153.871 58.6523 154.164 58.7148 154.5 58.7148C155.008 58.7148 155.449 58.6133 155.824 58.4102C156.199 58.207 156.488 57.957 156.691 57.6602C156.902 57.3633 157.012 57.082 157.02 56.8164L157.91 58.2461C157.785 58.5664 157.613 58.8984 157.395 59.2422C157.184 59.5859 156.914 59.9102 156.586 60.2148C156.258 60.5117 155.863 60.7578 155.402 60.9531C154.941 61.1406 154.395 61.2344 153.762 61.2344C152.957 61.2344 152.227 61.0742 151.57 60.7539C150.922 60.4258 150.406 59.9766 150.023 59.4062C149.648 58.8281 149.461 58.1719 149.461 57.4375C149.461 56.7734 149.586 56.1836 149.836 55.668C150.086 55.1523 150.453 54.7188 150.938 54.3672C151.43 54.0078 152.043 53.7383 152.777 53.5586C153.512 53.3711 154.363 53.2773 155.332 53.2773H157.289ZM169.699 57.4961C169.699 57.2539 169.629 57.0352 169.488 56.8398C169.348 56.6445 169.086 56.4648 168.703 56.3008C168.328 56.1289 167.785 55.9727 167.074 55.832C166.434 55.6914 165.836 55.5156 165.281 55.3047C164.734 55.0859 164.258 54.8242 163.852 54.5195C163.453 54.2148 163.141 53.8555 162.914 53.4414C162.688 53.0195 162.574 52.5391 162.574 52C162.574 51.4688 162.688 50.9688 162.914 50.5C163.148 50.0312 163.48 49.6172 163.91 49.2578C164.348 48.8906 164.879 48.6055 165.504 48.4023C166.137 48.1914 166.848 48.0859 167.637 48.0859C168.738 48.0859 169.684 48.2617 170.473 48.6133C171.27 48.9648 171.879 49.4492 172.301 50.0664C172.73 50.6758 172.945 51.3711 172.945 52.1523H169.57C169.57 51.8242 169.5 51.5312 169.359 51.2734C169.227 51.0078 169.016 50.8008 168.727 50.6523C168.445 50.4961 168.078 50.418 167.625 50.418C167.25 50.418 166.926 50.4844 166.652 50.6172C166.379 50.7422 166.168 50.9141 166.02 51.1328C165.879 51.3438 165.809 51.5781 165.809 51.8359C165.809 52.0312 165.848 52.207 165.926 52.3633C166.012 52.5117 166.148 52.6484 166.336 52.7734C166.523 52.8984 166.766 53.0156 167.062 53.125C167.367 53.2266 167.742 53.3203 168.188 53.4062C169.102 53.5938 169.918 53.8398 170.637 54.1445C171.355 54.4414 171.926 54.8477 172.348 55.3633C172.77 55.8711 172.98 56.5391 172.98 57.3672C172.98 57.9297 172.855 58.4453 172.605 58.9141C172.355 59.3828 171.996 59.793 171.527 60.1445C171.059 60.4883 170.496 60.7578 169.84 60.9531C169.191 61.1406 168.461 61.2344 167.648 61.2344C166.469 61.2344 165.469 61.0234 164.648 60.6016C163.836 60.1797 163.219 59.6445 162.797 58.9961C162.383 58.3398 162.176 57.668 162.176 56.9805H165.375C165.391 57.4414 165.508 57.8125 165.727 58.0938C165.953 58.375 166.238 58.5781 166.582 58.7031C166.934 58.8281 167.312 58.8906 167.719 58.8906C168.156 58.8906 168.52 58.832 168.809 58.7148C169.098 58.5898 169.316 58.4258 169.465 58.2227C169.621 58.0117 169.699 57.7695 169.699 57.4961ZM178.734 48.3203V61H175.348V48.3203H178.734ZM175.137 45.0156C175.137 44.5234 175.309 44.1172 175.652 43.7969C175.996 43.4766 176.457 43.3164 177.035 43.3164C177.605 43.3164 178.062 43.4766 178.406 43.7969C178.758 44.1172 178.934 44.5234 178.934 45.0156C178.934 45.5078 178.758 45.9141 178.406 46.2344C178.062 46.5547 177.605 46.7148 177.035 46.7148C176.457 46.7148 175.996 46.5547 175.652 46.2344C175.309 45.9141 175.137 45.5078 175.137 45.0156ZM196.98 58.4688L201.598 62.125L199.383 64.0469L194.836 60.3906L196.98 58.4688ZM201.715 52.0703V52.8789C201.715 54.1758 201.539 55.3398 201.188 56.3711C200.844 57.4023 200.348 58.2812 199.699 59.0078C199.051 59.7266 198.285 60.2773 197.402 60.6602C196.52 61.043 195.539 61.2344 194.461 61.2344C193.391 61.2344 192.41 61.043 191.52 60.6602C190.629 60.2773 189.859 59.7266 189.211 59.0078C188.562 58.2812 188.059 57.4023 187.699 56.3711C187.348 55.3398 187.172 54.1758 187.172 52.8789V52.0703C187.172 50.7656 187.348 49.6016 187.699 48.5781C188.059 47.5469 188.559 46.668 189.199 45.9414C189.84 45.2148 190.605 44.6602 191.496 44.2773C192.387 43.8945 193.367 43.7031 194.438 43.7031C195.516 43.7031 196.496 43.8945 197.379 44.2773C198.27 44.6602 199.039 45.2148 199.688 45.9414C200.336 46.668 200.836 47.5469 201.188 48.5781C201.539 49.6016 201.715 50.7656 201.715 52.0703ZM198.164 52.8789V52.0469C198.164 51.1406 198.078 50.3438 197.906 49.6562C197.742 48.9688 197.5 48.3906 197.18 47.9219C196.867 47.4531 196.48 47.1016 196.02 46.8672C195.559 46.625 195.031 46.5039 194.438 46.5039C193.844 46.5039 193.316 46.625 192.855 46.8672C192.395 47.1016 192.008 47.4531 191.695 47.9219C191.383 48.3906 191.145 48.9688 190.98 49.6562C190.816 50.3438 190.734 51.1406 190.734 52.0469V52.8789C190.734 53.7773 190.816 54.5742 190.98 55.2695C191.145 55.957 191.383 56.5391 191.695 57.0156C192.016 57.4844 192.406 57.8398 192.867 58.082C193.336 58.3242 193.867 58.4453 194.461 58.4453C195.055 58.4453 195.578 58.3242 196.031 58.082C196.492 57.8398 196.879 57.4844 197.191 57.0156C197.512 56.5391 197.754 55.957 197.918 55.2695C198.082 54.5742 198.164 53.7773 198.164 52.8789ZM211.547 57.9648V48.3203H214.922V61H211.746L211.547 57.9648ZM211.922 55.3633L212.918 55.3398C212.918 56.1836 212.82 56.9688 212.625 57.6953C212.43 58.4141 212.137 59.0391 211.746 59.5703C211.355 60.0938 210.863 60.5039 210.27 60.8008C209.676 61.0898 208.977 61.2344 208.172 61.2344C207.555 61.2344 206.984 61.1484 206.461 60.9766C205.945 60.7969 205.5 60.5195 205.125 60.1445C204.758 59.7617 204.469 59.2734 204.258 58.6797C204.055 58.0781 203.953 57.3555 203.953 56.5117V48.3203H207.328V56.5352C207.328 56.9102 207.371 57.2266 207.457 57.4844C207.551 57.7422 207.68 57.9531 207.844 58.1172C208.008 58.2812 208.199 58.3984 208.418 58.4688C208.645 58.5391 208.895 58.5742 209.168 58.5742C209.863 58.5742 210.41 58.4336 210.809 58.1523C211.215 57.8711 211.5 57.4883 211.664 57.0039C211.836 56.5117 211.922 55.9648 211.922 55.3633ZM216.961 54.7891V54.543C216.961 53.6133 217.094 52.7578 217.359 51.9766C217.625 51.1875 218.012 50.5039 218.52 49.9258C219.027 49.3477 219.652 48.8984 220.395 48.5781C221.137 48.25 221.988 48.0859 222.949 48.0859C223.91 48.0859 224.766 48.25 225.516 48.5781C226.266 48.8984 226.895 49.3477 227.402 49.9258C227.918 50.5039 228.309 51.1875 228.574 51.9766C228.84 52.7578 228.973 53.6133 228.973 54.543V54.7891C228.973 55.7109 228.84 56.5664 228.574 57.3555C228.309 58.1367 227.918 58.8203 227.402 59.4062C226.895 59.9844 226.27 60.4336 225.527 60.7539C224.785 61.0742 223.934 61.2344 222.973 61.2344C222.012 61.2344 221.156 61.0742 220.406 60.7539C219.664 60.4336 219.035 59.9844 218.52 59.4062C218.012 58.8203 217.625 58.1367 217.359 57.3555C217.094 56.5664 216.961 55.7109 216.961 54.7891ZM220.336 54.543V54.7891C220.336 55.3203 220.383 55.8164 220.477 56.2773C220.57 56.7383 220.719 57.1445 220.922 57.4961C221.133 57.8398 221.406 58.1094 221.742 58.3047C222.078 58.5 222.488 58.5977 222.973 58.5977C223.441 58.5977 223.844 58.5 224.18 58.3047C224.516 58.1094 224.785 57.8398 224.988 57.4961C225.191 57.1445 225.34 56.7383 225.434 56.2773C225.535 55.8164 225.586 55.3203 225.586 54.7891V54.543C225.586 54.0273 225.535 53.543 225.434 53.0898C225.34 52.6289 225.188 52.2227 224.977 51.8711C224.773 51.5117 224.504 51.2305 224.168 51.0273C223.832 50.8242 223.426 50.7227 222.949 50.7227C222.473 50.7227 222.066 50.8242 221.73 51.0273C221.402 51.2305 221.133 51.5117 220.922 51.8711C220.719 52.2227 220.57 52.6289 220.477 53.0898C220.383 53.543 220.336 54.0273 220.336 54.543ZM237.258 48.3203V50.7109H229.875V48.3203H237.258ZM231.703 45.1914H235.078V57.1797C235.078 57.5469 235.125 57.8281 235.219 58.0234C235.32 58.2188 235.469 58.3555 235.664 58.4336C235.859 58.5039 236.105 58.5391 236.402 58.5391C236.613 58.5391 236.801 58.5312 236.965 58.5156C237.137 58.4922 237.281 58.4688 237.398 58.4453L237.41 60.9297C237.121 61.0234 236.809 61.0977 236.473 61.1523C236.137 61.207 235.766 61.2344 235.359 61.2344C234.617 61.2344 233.969 61.1133 233.414 60.8711C232.867 60.6211 232.445 60.2227 232.148 59.6758C231.852 59.1289 231.703 58.4102 231.703 57.5195V45.1914ZM245.016 61.2344C244.031 61.2344 243.148 61.0781 242.367 60.7656C241.586 60.4453 240.922 60.0039 240.375 59.4414C239.836 58.8789 239.422 58.2266 239.133 57.4844C238.844 56.7344 238.699 55.9375 238.699 55.0938V54.625C238.699 53.6641 238.836 52.7852 239.109 51.9883C239.383 51.1914 239.773 50.5 240.281 49.9141C240.797 49.3281 241.422 48.8789 242.156 48.5664C242.891 48.2461 243.719 48.0859 244.641 48.0859C245.539 48.0859 246.336 48.2344 247.031 48.5312C247.727 48.8281 248.309 49.25 248.777 49.7969C249.254 50.3438 249.613 51 249.855 51.7656C250.098 52.5234 250.219 53.3672 250.219 54.2969V55.7031H240.141V53.4531H246.902V53.1953C246.902 52.7266 246.816 52.3086 246.645 51.9414C246.48 51.5664 246.23 51.2695 245.895 51.0508C245.559 50.832 245.129 50.7227 244.605 50.7227C244.16 50.7227 243.777 50.8203 243.457 51.0156C243.137 51.2109 242.875 51.4844 242.672 51.8359C242.477 52.1875 242.328 52.6016 242.227 53.0781C242.133 53.5469 242.086 54.0625 242.086 54.625V55.0938C242.086 55.6016 242.156 56.0703 242.297 56.5C242.445 56.9297 242.652 57.3008 242.918 57.6133C243.191 57.9258 243.52 58.168 243.902 58.3398C244.293 58.5117 244.734 58.5977 245.227 58.5977C245.836 58.5977 246.402 58.4805 246.926 58.2461C247.457 58.0039 247.914 57.6406 248.297 57.1562L249.938 58.9375C249.672 59.3203 249.309 59.6875 248.848 60.0391C248.395 60.3906 247.848 60.6797 247.207 60.9062C246.566 61.125 245.836 61.2344 245.016 61.2344ZM258.996 57.4961C258.996 57.2539 258.926 57.0352 258.785 56.8398C258.645 56.6445 258.383 56.4648 258 56.3008C257.625 56.1289 257.082 55.9727 256.371 55.832C255.73 55.6914 255.133 55.5156 254.578 55.3047C254.031 55.0859 253.555 54.8242 253.148 54.5195C252.75 54.2148 252.438 53.8555 252.211 53.4414C251.984 53.0195 251.871 52.5391 251.871 52C251.871 51.4688 251.984 50.9688 252.211 50.5C252.445 50.0312 252.777 49.6172 253.207 49.2578C253.645 48.8906 254.176 48.6055 254.801 48.4023C255.434 48.1914 256.145 48.0859 256.934 48.0859C258.035 48.0859 258.98 48.2617 259.77 48.6133C260.566 48.9648 261.176 49.4492 261.598 50.0664C262.027 50.6758 262.242 51.3711 262.242 52.1523H258.867C258.867 51.8242 258.797 51.5312 258.656 51.2734C258.523 51.0078 258.312 50.8008 258.023 50.6523C257.742 50.4961 257.375 50.418 256.922 50.418C256.547 50.418 256.223 50.4844 255.949 50.6172C255.676 50.7422 255.465 50.9141 255.316 51.1328C255.176 51.3438 255.105 51.5781 255.105 51.8359C255.105 52.0312 255.145 52.207 255.223 52.3633C255.309 52.5117 255.445 52.6484 255.633 52.7734C255.82 52.8984 256.062 53.0156 256.359 53.125C256.664 53.2266 257.039 53.3203 257.484 53.4062C258.398 53.5938 259.215 53.8398 259.934 54.1445C260.652 54.4414 261.223 54.8477 261.645 55.3633C262.066 55.8711 262.277 56.5391 262.277 57.3672C262.277 57.9297 262.152 58.4453 261.902 58.9141C261.652 59.3828 261.293 59.793 260.824 60.1445C260.355 60.4883 259.793 60.7578 259.137 60.9531C258.488 61.1406 257.758 61.2344 256.945 61.2344C255.766 61.2344 254.766 61.0234 253.945 60.6016C253.133 60.1797 252.516 59.6445 252.094 58.9961C251.68 58.3398 251.473 57.668 251.473 56.9805H254.672C254.688 57.4414 254.805 57.8125 255.023 58.0938C255.25 58.375 255.535 58.5781 255.879 58.7031C256.23 58.8281 256.609 58.8906 257.016 58.8906C257.453 58.8906 257.816 58.832 258.105 58.7148C258.395 58.5898 258.613 58.4258 258.762 58.2227C258.918 58.0117 258.996 57.7695 258.996 57.4961Z" fill="#888888"/>
<path d="M113.18 109.93C113.18 109.398 113.102 108.922 112.945 108.5C112.789 108.062 112.5 107.656 112.078 107.281C111.656 106.906 111.047 106.531 110.25 106.156C109.469 105.766 108.438 105.359 107.156 104.938C105.656 104.438 104.211 103.875 102.82 103.25C101.43 102.609 100.188 101.867 99.0938 101.023C98 100.164 97.1328 99.1641 96.4922 98.0234C95.8516 96.8672 95.5312 95.5234 95.5312 93.9922C95.5312 92.5234 95.8594 91.2031 96.5156 90.0312C97.1719 88.8438 98.0859 87.8359 99.2578 87.0078C100.445 86.1641 101.836 85.5234 103.43 85.0859C105.023 84.6328 106.766 84.4062 108.656 84.4062C111.156 84.4062 113.359 84.8438 115.266 85.7188C117.188 86.5781 118.688 87.8047 119.766 89.3984C120.859 90.9766 121.406 92.8438 121.406 95H113.227C113.227 94.1406 113.047 93.3828 112.688 92.7266C112.344 92.0703 111.82 91.5547 111.117 91.1797C110.414 90.8047 109.531 90.6172 108.469 90.6172C107.438 90.6172 106.57 90.7734 105.867 91.0859C105.164 91.3984 104.633 91.8203 104.273 92.3516C103.914 92.8672 103.734 93.4375 103.734 94.0625C103.734 94.5781 103.875 95.0469 104.156 95.4688C104.453 95.875 104.867 96.2578 105.398 96.6172C105.945 96.9766 106.602 97.3203 107.367 97.6484C108.148 97.9766 109.023 98.2969 109.992 98.6094C111.805 99.1875 113.414 99.8359 114.82 100.555C116.242 101.258 117.438 102.062 118.406 102.969C119.391 103.859 120.133 104.875 120.633 106.016C121.148 107.156 121.406 108.445 121.406 109.883C121.406 111.414 121.109 112.773 120.516 113.961C119.922 115.148 119.07 116.156 117.961 116.984C116.852 117.797 115.523 118.414 113.977 118.836C112.43 119.258 110.703 119.469 108.797 119.469C107.047 119.469 105.32 119.25 103.617 118.812C101.93 118.359 100.398 117.672 99.0234 116.75C97.6484 115.812 96.5469 114.617 95.7188 113.164C94.9062 111.695 94.5 109.953 94.5 107.938H102.75C102.75 108.938 102.883 109.781 103.148 110.469C103.414 111.156 103.805 111.711 104.32 112.133C104.836 112.539 105.469 112.836 106.219 113.023C106.969 113.195 107.828 113.281 108.797 113.281C109.844 113.281 110.688 113.133 111.328 112.836C111.969 112.523 112.438 112.117 112.734 111.617C113.031 111.102 113.18 110.539 113.18 109.93ZM133.031 99.0547V119H125.133V93.6406H132.539L133.031 99.0547ZM132.094 105.453L130.242 105.5C130.242 103.562 130.477 101.836 130.945 100.32C131.414 98.7891 132.078 97.4922 132.938 96.4297C133.797 95.3672 134.82 94.5625 136.008 94.0156C137.211 93.4531 138.547 93.1719 140.016 93.1719C141.188 93.1719 142.258 93.3438 143.227 93.6875C144.211 94.0312 145.055 94.5859 145.758 95.3516C146.477 96.1172 147.023 97.1328 147.398 98.3984C147.789 99.6484 147.984 101.195 147.984 103.039V119H140.039V103.016C140.039 102 139.898 101.227 139.617 100.695C139.336 100.148 138.93 99.7734 138.398 99.5703C137.867 99.3672 137.219 99.2656 136.453 99.2656C135.641 99.2656 134.953 99.4219 134.391 99.7344C133.828 100.047 133.375 100.484 133.031 101.047C132.703 101.594 132.461 102.242 132.305 102.992C132.164 103.742 132.094 104.562 132.094 105.453ZM165.539 112.625V102.172C165.539 101.453 165.438 100.836 165.234 100.32C165.031 99.8047 164.711 99.4062 164.273 99.125C163.836 98.8281 163.25 98.6797 162.516 98.6797C161.922 98.6797 161.414 98.7812 160.992 98.9844C160.57 99.1875 160.25 99.4922 160.031 99.8984C159.812 100.305 159.703 100.82 159.703 101.445H151.805C151.805 100.273 152.062 99.1875 152.578 98.1875C153.109 97.1719 153.859 96.2891 154.828 95.5391C155.812 94.7891 156.984 94.2109 158.344 93.8047C159.719 93.3828 161.25 93.1719 162.938 93.1719C164.953 93.1719 166.75 93.5078 168.328 94.1797C169.922 94.8516 171.18 95.8594 172.102 97.2031C173.023 98.5312 173.484 100.203 173.484 102.219V112.602C173.484 114.258 173.578 115.516 173.766 116.375C173.953 117.219 174.219 117.961 174.562 118.602V119H166.641C166.266 118.219 165.984 117.266 165.797 116.141C165.625 115 165.539 113.828 165.539 112.625ZM166.5 103.508L166.547 107.727H163.055C162.32 107.727 161.695 107.828 161.18 108.031C160.68 108.234 160.273 108.516 159.961 108.875C159.664 109.219 159.445 109.609 159.305 110.047C159.18 110.484 159.117 110.945 159.117 111.43C159.117 111.898 159.227 112.32 159.445 112.695C159.68 113.055 159.992 113.336 160.383 113.539C160.773 113.742 161.211 113.844 161.695 113.844C162.57 113.844 163.312 113.68 163.922 113.352C164.547 113.008 165.023 112.594 165.352 112.109C165.68 111.625 165.844 111.172 165.844 110.75L167.578 113.984C167.266 114.609 166.906 115.242 166.5 115.883C166.109 116.523 165.617 117.117 165.023 117.664C164.445 118.195 163.734 118.633 162.891 118.977C162.047 119.305 161.023 119.469 159.82 119.469C158.258 119.469 156.82 119.148 155.508 118.508C154.211 117.867 153.172 116.977 152.391 115.836C151.609 114.68 151.219 113.352 151.219 111.852C151.219 110.539 151.453 109.367 151.922 108.336C152.406 107.305 153.133 106.43 154.102 105.711C155.07 104.992 156.305 104.445 157.805 104.07C159.305 103.695 161.07 103.508 163.102 103.508H166.5ZM185.836 98.5156V128.75H177.938V93.6406H185.297L185.836 98.5156ZM201.398 106.016V106.508C201.398 108.352 201.188 110.062 200.766 111.641C200.344 113.219 199.719 114.594 198.891 115.766C198.062 116.938 197.031 117.852 195.797 118.508C194.578 119.148 193.164 119.469 191.555 119.469C190.039 119.469 188.734 119.133 187.641 118.461C186.547 117.789 185.633 116.859 184.898 115.672C184.164 114.484 183.57 113.125 183.117 111.594C182.664 110.062 182.305 108.445 182.039 106.742V106.109C182.305 104.281 182.664 102.586 183.117 101.023C183.57 99.4453 184.164 98.0703 184.898 96.8984C185.633 95.7266 186.539 94.8125 187.617 94.1562C188.711 93.5 190.016 93.1719 191.531 93.1719C193.141 93.1719 194.555 93.4766 195.773 94.0859C197.008 94.6953 198.039 95.5703 198.867 96.7109C199.711 97.8359 200.344 99.1875 200.766 100.766C201.188 102.344 201.398 104.094 201.398 106.016ZM193.5 106.508V106.016C193.5 105.031 193.43 104.133 193.289 103.32C193.148 102.492 192.922 101.773 192.609 101.164C192.312 100.555 191.914 100.086 191.414 99.7578C190.914 99.4297 190.297 99.2656 189.562 99.2656C188.719 99.2656 188.008 99.3984 187.43 99.6641C186.867 99.9141 186.414 100.305 186.07 100.836C185.742 101.352 185.508 102 185.367 102.781C185.242 103.547 185.188 104.445 185.203 105.477V107.398C185.172 108.586 185.289 109.633 185.555 110.539C185.82 111.43 186.281 112.125 186.938 112.625C187.594 113.125 188.484 113.375 189.609 113.375C190.359 113.375 190.984 113.203 191.484 112.859C191.984 112.5 192.383 112.008 192.68 111.383C192.977 110.742 193.188 110.008 193.312 109.18C193.438 108.352 193.5 107.461 193.5 106.508ZM218.203 111.875C218.203 111.438 218.055 111.062 217.758 110.75C217.477 110.422 216.977 110.125 216.258 109.859C215.539 109.578 214.531 109.297 213.234 109.016C212 108.75 210.836 108.398 209.742 107.961C208.664 107.523 207.719 106.992 206.906 106.367C206.094 105.742 205.453 105 204.984 104.141C204.531 103.281 204.305 102.297 204.305 101.188C204.305 100.109 204.531 99.0938 204.984 98.1406C205.453 97.1719 206.133 96.3203 207.023 95.5859C207.93 94.8359 209.031 94.25 210.328 93.8281C211.625 93.3906 213.102 93.1719 214.758 93.1719C217.039 93.1719 219.008 93.5234 220.664 94.2266C222.32 94.9141 223.594 95.8828 224.484 97.1328C225.391 98.3672 225.844 99.7969 225.844 101.422H217.945C217.945 100.781 217.836 100.234 217.617 99.7812C217.414 99.3281 217.078 98.9844 216.609 98.75C216.141 98.5 215.516 98.375 214.734 98.375C214.188 98.375 213.688 98.4766 213.234 98.6797C212.797 98.8828 212.445 99.1641 212.18 99.5234C211.914 99.8828 211.781 100.305 211.781 100.789C211.781 101.133 211.859 101.445 212.016 101.727C212.188 101.992 212.445 102.242 212.789 102.477C213.133 102.695 213.57 102.898 214.102 103.086C214.633 103.258 215.273 103.414 216.023 103.555C217.727 103.867 219.32 104.312 220.805 104.891C222.289 105.469 223.492 106.289 224.414 107.352C225.352 108.414 225.82 109.844 225.82 111.641C225.82 112.766 225.562 113.805 225.047 114.758C224.531 115.695 223.789 116.523 222.82 117.242C221.852 117.945 220.688 118.492 219.328 118.883C217.969 119.273 216.438 119.469 214.734 119.469C212.312 119.469 210.266 119.039 208.594 118.18C206.922 117.305 205.656 116.211 204.797 114.898C203.953 113.57 203.531 112.227 203.531 110.867H210.891C210.922 111.648 211.109 112.289 211.453 112.789C211.812 113.289 212.289 113.656 212.883 113.891C213.477 114.125 214.164 114.242 214.945 114.242C215.664 114.242 216.258 114.141 216.727 113.938C217.211 113.734 217.578 113.461 217.828 113.117C218.078 112.758 218.203 112.344 218.203 111.875ZM237.258 83V119H229.359V83H237.258ZM236.32 105.453L234.469 105.5C234.469 103.719 234.688 102.078 235.125 100.578C235.562 99.0781 236.188 97.7734 237 96.6641C237.812 95.5547 238.789 94.6953 239.93 94.0859C241.07 93.4766 242.336 93.1719 243.727 93.1719C244.977 93.1719 246.117 93.3516 247.148 93.7109C248.195 94.0703 249.094 94.6484 249.844 95.4453C250.609 96.2422 251.195 97.2812 251.602 98.5625C252.023 99.8438 252.234 101.406 252.234 103.25V119H244.289V103.203C244.289 102.172 244.141 101.375 243.844 100.812C243.562 100.234 243.156 99.8359 242.625 99.6172C242.094 99.3828 241.445 99.2656 240.68 99.2656C239.758 99.2656 239.008 99.4219 238.43 99.7344C237.852 100.047 237.406 100.484 237.094 101.047C236.797 101.594 236.594 102.242 236.484 102.992C236.375 103.742 236.32 104.562 236.32 105.453ZM255.633 106.578V106.086C255.633 104.227 255.898 102.516 256.43 100.953C256.961 99.375 257.742 98.0078 258.773 96.8516C259.805 95.6953 261.078 94.7969 262.594 94.1562C264.109 93.5 265.859 93.1719 267.844 93.1719C269.844 93.1719 271.602 93.5 273.117 94.1562C274.648 94.7969 275.93 95.6953 276.961 96.8516C277.992 98.0078 278.773 99.375 279.305 100.953C279.836 102.516 280.102 104.227 280.102 106.086V106.578C280.102 108.422 279.836 110.133 279.305 111.711C278.773 113.273 277.992 114.641 276.961 115.812C275.93 116.969 274.656 117.867 273.141 118.508C271.625 119.148 269.875 119.469 267.891 119.469C265.906 119.469 264.148 119.148 262.617 118.508C261.086 117.867 259.805 116.969 258.773 115.812C257.742 114.641 256.961 113.273 256.43 111.711C255.898 110.133 255.633 108.422 255.633 106.578ZM263.531 106.086V106.578C263.531 107.531 263.602 108.422 263.742 109.25C263.883 110.078 264.117 110.805 264.445 111.43C264.773 112.039 265.219 112.516 265.781 112.859C266.344 113.203 267.047 113.375 267.891 113.375C268.719 113.375 269.406 113.203 269.953 112.859C270.516 112.516 270.961 112.039 271.289 111.43C271.617 110.805 271.852 110.078 271.992 109.25C272.133 108.422 272.203 107.531 272.203 106.578V106.086C272.203 105.164 272.133 104.297 271.992 103.484C271.852 102.656 271.617 101.93 271.289 101.305C270.961 100.664 270.516 100.164 269.953 99.8047C269.391 99.4453 268.688 99.2656 267.844 99.2656C267.016 99.2656 266.32 99.4453 265.758 99.8047C265.211 100.164 264.773 100.664 264.445 101.305C264.117 101.93 263.883 102.656 263.742 103.484C263.602 104.297 263.531 105.164 263.531 106.086ZM296.977 93.6406V99.125H281.695V93.6406H296.977ZM284.906 87.3359H292.805V110.727C292.805 111.398 292.883 111.922 293.039 112.297C293.195 112.656 293.461 112.914 293.836 113.07C294.227 113.211 294.742 113.281 295.383 113.281C295.836 113.281 296.211 113.273 296.508 113.258C296.805 113.227 297.086 113.188 297.352 113.141V118.789C296.68 119.008 295.977 119.172 295.242 119.281C294.508 119.406 293.727 119.469 292.898 119.469C291.211 119.469 289.766 119.203 288.562 118.672C287.375 118.141 286.469 117.305 285.844 116.164C285.219 115.023 284.906 113.539 284.906 111.711V87.3359ZM313.406 111.875C313.406 111.438 313.258 111.062 312.961 110.75C312.68 110.422 312.18 110.125 311.461 109.859C310.742 109.578 309.734 109.297 308.438 109.016C307.203 108.75 306.039 108.398 304.945 107.961C303.867 107.523 302.922 106.992 302.109 106.367C301.297 105.742 300.656 105 300.188 104.141C299.734 103.281 299.508 102.297 299.508 101.188C299.508 100.109 299.734 99.0938 300.188 98.1406C300.656 97.1719 301.336 96.3203 302.227 95.5859C303.133 94.8359 304.234 94.25 305.531 93.8281C306.828 93.3906 308.305 93.1719 309.961 93.1719C312.242 93.1719 314.211 93.5234 315.867 94.2266C317.523 94.9141 318.797 95.8828 319.688 97.1328C320.594 98.3672 321.047 99.7969 321.047 101.422H313.148C313.148 100.781 313.039 100.234 312.82 99.7812C312.617 99.3281 312.281 98.9844 311.812 98.75C311.344 98.5 310.719 98.375 309.938 98.375C309.391 98.375 308.891 98.4766 308.438 98.6797C308 98.8828 307.648 99.1641 307.383 99.5234C307.117 99.8828 306.984 100.305 306.984 100.789C306.984 101.133 307.062 101.445 307.219 101.727C307.391 101.992 307.648 102.242 307.992 102.477C308.336 102.695 308.773 102.898 309.305 103.086C309.836 103.258 310.477 103.414 311.227 103.555C312.93 103.867 314.523 104.312 316.008 104.891C317.492 105.469 318.695 106.289 319.617 107.352C320.555 108.414 321.023 109.844 321.023 111.641C321.023 112.766 320.766 113.805 320.25 114.758C319.734 115.695 318.992 116.523 318.023 117.242C317.055 117.945 315.891 118.492 314.531 118.883C313.172 119.273 311.641 119.469 309.938 119.469C307.516 119.469 305.469 119.039 303.797 118.18C302.125 117.305 300.859 116.211 300 114.898C299.156 113.57 298.734 112.227 298.734 110.867H306.094C306.125 111.648 306.312 112.289 306.656 112.789C307.016 113.289 307.492 113.656 308.086 113.891C308.68 114.125 309.367 114.242 310.148 114.242C310.867 114.242 311.461 114.141 311.93 113.938C312.414 113.734 312.781 113.461 313.031 113.117C313.281 112.758 313.406 112.344 313.406 111.875Z" fill="black"/>
<path d="M1134 0H1348C1356.28 0 1363 6.71573 1363 15V148C1363 156.284 1356.28 163 1348 163H1134V0Z" fill="#40265A"/>
<path fill-rule="evenodd" clip-rule="evenodd" d="M1202.75 46.5018C1202.75 45.3973 1203.65 44.5018 1204.75 44.5018H1292.25C1293.35 44.5018 1294.25 45.3973 1294.25 46.5018V116.498C1294.25 117.603 1293.35 118.498 1292.25 118.498H1204.75C1203.65 118.498 1202.75 117.603 1202.75 116.498V46.5018ZM1206.75 48.5018V52.9963H1290.25V48.5018H1206.75ZM1290.25 56.9963H1235.19V114.498H1290.25V56.9963ZM1231.19 114.498V56.9963H1206.75V114.498H1231.19Z" fill="white"/>
<path fill-rule="evenodd" clip-rule="evenodd" d="M1209.72 62.3022C1209.72 61.1976 1210.62 60.3022 1211.72 60.3022H1225.72C1226.83 60.3022 1227.72 61.1976 1227.72 62.3022V81.6974C1227.72 82.802 1226.83 83.6974 1225.72 83.6974H1211.72C1210.62 83.6974 1209.72 82.802 1209.72 81.6974V62.3022ZM1213.72 64.3022V79.6974H1223.72V64.3022H1213.72ZM1239.33 63.1982C1239.33 62.0936 1240.22 61.1982 1241.33 61.1982H1284.25C1285.36 61.1982 1286.25 62.0936 1286.25 63.1982V109.407C1286.25 110.511 1285.36 111.407 1284.25 111.407H1241.33C1240.22 111.407 1239.33 110.511 1239.33 109.407V63.1982ZM1243.33 65.1982V107.407H1282.25V65.1982H1243.33ZM1209.56 93.4381C1209.56 92.3336 1210.46 91.4381 1211.56 91.4381H1220.48C1221.59 91.4381 1222.48 92.3336 1222.48 93.4381C1222.48 94.5427 1221.59 95.4381 1220.48 95.4381H1211.56C1210.46 95.4381 1209.56 94.5427 1209.56 93.4381ZM1209.56 100.438C1209.56 99.3335 1210.46 98.4381 1211.56 98.4381H1226.1C1227.21 98.4381 1228.1 99.3335 1228.1 100.438C1228.1 101.543 1227.21 102.438 1226.1 102.438H1211.56C1210.46 102.438 1209.56 101.543 1209.56 100.438ZM1209.56 107.438C1209.56 106.334 1210.46 105.438 1211.56 105.438H1220.48C1221.59 105.438 1222.48 106.334 1222.48 107.438C1222.48 108.543 1221.59 109.438 1220.48 109.438H1211.56C1210.46 109.438 1209.56 108.543 1209.56 107.438Z" fill="white"/>
</svg>
